<?xml version="1.0" standalone="no"?>
<!DOCTYPE svg PUBLIC "-//W3C//DTD SVG 20010904//EN"
 "http://www.w3.org/TR/2001/REC-SVG-20010904/DTD/svg10.dtd">
<svg version="1.0" xmlns="http://www.w3.org/2000/svg"
 width="268.000000pt" height="268.000000pt" viewBox="0 0 268.000000 268.000000"
 preserveAspectRatio="xMidYMid meet">
<metadata>
Created by potrace 1.14, written by Peter Selinger 2001-2017
</metadata>
<g transform="translate(0.000000,268.000000) scale(0.100000,-0.100000)"
fill="#000000" stroke="none">
<path d="M1140 2613 c-194 -21 -407 -100 -580 -216 -96 -64 -273 -241 -337
-337 -296 -442 -296 -998 0 -1440 64 -96 241 -273 337 -337 390 -261 880 -294
1295 -86 124 63 208 125 321 237 115 115 185 210 248 334 43 86 102 256 112
326 10 75 27 31 27 -73 l1 -86 23 74 c70 221 72 537 3 735 -11 33 -19 61 -17
63 2 1 23 -14 48 -35 l43 -37 -33 60 c-70 125 -140 214 -271 345 -152 153
-258 230 -434 315 -268 130 -539 185 -786 158z m510 -114 c284 -78 564 -304
726 -584 l28 -50 -33 28 c-18 15 -46 34 -61 42 l-29 15 34 -73 c143 -308 120
-749 -55 -1097 -120 -237 -332 -439 -564 -537 -44 -19 -128 -46 -186 -61 -96
-25 -121 -27 -305 -27 -125 0 -220 5 -255 13 -71 17 -240 97 -332 159 -158
105 -312 282 -400 457 l-30 61 68 -66 c83 -79 141 -119 237 -165 180 -85 404
-85 582 -1 150 72 285 239 344 428 38 123 49 109 -81 109 -329 0 -607 106
-719 274 -60 89 -58 91 69 93 411 7 703 227 827 626 l28 88 -20 27 c-11 15
-52 51 -92 79 -87 63 -82 68 52 67 l87 0 0 58 c0 32 1 58 3 58 1 0 36 -9 77
-21z"/>
<path d="M1559 1757 c-34 -23 -80 -110 -65 -124 14 -14 112 -6 148 11 41 20
118 83 118 97 0 17 -67 39 -118 39 -34 0 -59 -7 -83 -23z"/>
</g>
</svg>
